<?xml version="1.0" encoding="UTF-8"?>
<svg version="1.1" xmlns="http://www.w3.org/2000/svg" xmlns:xlink="http://www.w3.org/1999/xlink">
    <symbol id="collective-logo" vwidth="168px" height="20px" viewBox="0 0 168 20">
    <path class="collective" fill="inherit" d="M6.1,20C2.6,20,0,17.6,0,13.2c0-4.5,2.7-6.8,6.1-6.8c1.9,0,3.3,0.5,4.3,1.2L10,10C8.8,9,7.6,8.6,6.1,8.6
	c-2.1,0-3.6,1.6-3.6,4.6c0,3.2,1.6,4.7,3.9,4.7c1.3,0,2.5-0.3,3.8-1.4l0.4,2.2C9.2,19.6,7.8,20,6.1,20z M18.6,6.4
	c-3.5,0-6,2.5-6,6.8c0,4.3,2.5,6.8,6,6.8c3.5,0,6.1-2.5,6.1-6.8C24.6,8.9,22.1,6.4,18.6,6.4z M18.6,18c-2.3,0-3.5-2.1-3.5-4.8
	c0-2.7,1.2-4.8,3.5-4.8c2.4,0,3.6,2.1,3.6,4.8C22.2,16,21,18,18.6,18z M27.9,19.7V0.4L30.3,0v19.7H27.9z M34.5,19.7V0.4L37,0v19.7
	H34.5z M51.5,13c0-3.6-1.7-6.5-5.5-6.5c-3.3,0-5.7,2.6-5.7,6.7c0,4.8,2.7,6.8,6,6.8c2.2,0,3.8-0.7,5.2-1.7l-0.4-2.2
	c-1.4,1.1-2.8,1.9-4.7,1.9c-2.3,0-3.7-1.4-3.8-4.5h8.9V13z M42.8,11.6c0.4-2.2,1.7-3.3,3.2-3.3c1.9,0,2.8,1.2,3.1,3.3H42.8z
	 M60.1,20c-3.5,0-6.1-2.4-6.1-6.8c0-4.5,2.7-6.8,6.1-6.8c1.9,0,3.3,0.5,4.3,1.2L64,10c-1.2-1-2.4-1.4-3.9-1.4
	c-2.1,0-3.6,1.6-3.6,4.6c0,3.2,1.6,4.7,3.9,4.7c1.3,0,2.5-0.3,3.8-1.4l0.4,2.2C63.2,19.6,61.8,20,60.1,20z M72,19.9
	c-2.3,0-3.8-0.8-3.8-3.4V8.7h-2v-2h2V2.3L70.5,2v4.7h2.8l0.3,2h-3.1v7.3c0,1.1,0.4,1.7,1.8,1.7c0.4,0,0.8,0,1.1-0.1l0.3,2.1
	C73.4,19.9,72.8,19.9,72,19.9z M76.9,19.7v-13h2.4v13H76.9z M93.7,6.7h-2.5L88,16.8L84.7,6.7h-2.6l4.7,13.1h2.3L93.7,6.7z M106.4,13
	c0-3.6-1.7-6.5-5.5-6.5c-3.3,0-5.7,2.6-5.7,6.7c0,4.8,2.7,6.8,6,6.8c2.2,0,3.8-0.7,5.2-1.7l-0.4-2.2c-1.4,1.1-2.8,1.9-4.7,1.9
	c-2.3,0-3.7-1.4-3.8-4.5h8.9V13z M97.6,11.6c0.4-2.2,1.7-3.3,3.2-3.3c1.9,0,2.8,1.2,3.1,3.3H97.6z"/>
    <path class="office" fill="currentColor" d="M116.3,6.6c-3.1,0-5.7,2.4-5.7,6.7c0,4.2,2.5,6.7,5.7,6.7c3.1,0,5.7-2.5,5.7-6.7
	C121.9,9,119.5,6.6,116.3,6.6z M116.3,18.9c-2.8,0-4.3-2.3-4.3-5.6c0-3.3,1.5-5.6,4.3-5.6s4.3,2.4,4.3,5.6
	C120.6,16.6,119.1,18.9,116.3,18.9z M126.6,8v11.8h-1.3V8h-2V6.9h2V3.5c0-2.2,1.2-3.4,3.3-3.4c0.4,0,0.6,0,0.8,0l0.2,1.2
	c-0.2-0.1-0.5-0.1-1-0.1c-1.3,0-2.1,0.7-2.1,2.2v3.3h6.1V3.5c0-2.2,1.2-3.4,3.3-3.4c0.4,0,0.6,0,0.8,0l0.2,1.2
	c-0.2-0.1-0.5-0.1-1-0.1c-1.3,0-2.1,0.7-2.1,2.2v3.3h2.7l0.2,1.1H134v11.8h-1.3V8H126.6z M140.1,19.7V6.9h1.3v12.8H140.1z M150.8,20
	c-3.1,0-5.7-2.5-5.7-6.7c0-4.3,2.5-6.7,5.7-6.7c1.6,0,3,0.6,4.2,1.4l-0.2,1.3c-1.3-1.1-2.5-1.6-4-1.6c-2.7,0-4.3,2.3-4.3,5.6
	c0,3.2,1.6,5.6,4.5,5.6c1.4,0,2.7-0.5,4-1.6l0.2,1.2C154,19.4,152.6,20,150.8,20z M168,13c0-3.6-1.6-6.4-4.9-6.4
	c-3.1,0-5.5,2.6-5.5,6.7c0,4.2,2.3,6.7,5.7,6.7c1.8,0,3.5-0.8,4.7-1.9l-0.2-1.2c-1.3,1.1-2.9,2-4.5,2c-2.9,0-4.4-2.3-4.4-5.6h9.1V13
	z M159,12.2c0.3-2.7,1.7-4.6,4.1-4.6c2.2,0,3.5,2.1,3.6,4.6H159z"/>
    </symbol>
</svg>